<mxfile host="Electron" modified="2024-05-26T10:41:35.844Z" agent="Mozilla/5.0 (Macintosh; Intel Mac OS X 10_15_7) AppleWebKit/537.36 (KHTML, like Gecko) draw.io/23.1.5 Chrome/120.0.6099.109 Electron/28.1.0 Safari/537.36" etag="a1lewBFPCzpqfyx6fVpG" version="23.1.5" type="device">
  <diagram id="NZ323JlCOD3WbtI3rXQV" name="第 1 页">
    <mxGraphModel dx="1079" dy="899" grid="0" gridSize="10" guides="1" tooltips="1" connect="1" arrows="1" fold="1" page="1" pageScale="1" pageWidth="800" pageHeight="509" math="0" shadow="0">
      <root>
        <mxCell id="0" />
        <mxCell id="1" parent="0" />
        <mxCell id="adjJdDfT9aPbvH8SN8qC-59" value="" style="rounded=1;whiteSpace=wrap;html=1;fontSize=15;fillColor=none;dashed=1;" parent="1" vertex="1">
          <mxGeometry x="6" y="260" width="786" height="243" as="geometry" />
        </mxCell>
        <mxCell id="adjJdDfT9aPbvH8SN8qC-11" value="" style="rounded=1;whiteSpace=wrap;html=1;fontSize=15;fillColor=none;dashed=1;" parent="1" vertex="1">
          <mxGeometry x="42" y="6" width="714" height="239" as="geometry" />
        </mxCell>
        <mxCell id="adjJdDfT9aPbvH8SN8qC-3" style="edgeStyle=orthogonalEdgeStyle;rounded=0;orthogonalLoop=1;jettySize=auto;html=1;" parent="1" source="adjJdDfT9aPbvH8SN8qC-2" edge="1">
          <mxGeometry relative="1" as="geometry">
            <mxPoint x="285.5" y="96" as="targetPoint" />
          </mxGeometry>
        </mxCell>
        <mxCell id="adjJdDfT9aPbvH8SN8qC-2" value="" style="shape=image;verticalLabelPosition=bottom;labelBackgroundColor=default;verticalAlign=top;aspect=fixed;imageAspect=0;image=data:image/svg+xml,PHN2ZyB4bWxuczp4bGluaz0iaHR0cDovL3d3dy53My5vcmcvMTk5OS94bGluayIgeG1sbnM9Imh0dHA6Ly93d3cudzMub3JnLzIwMDAvc3ZnIiBoZWlnaHQ9IjIwMCIgd2lkdGg9IjIwMCIgdmVyc2lvbj0iMS4xIiB2aWV3Qm94PSIwIDAgMTAyNCAxMDI0IiBjbGFzcz0iaWNvbiI+PHBhdGggZmlsbD0iI0JDQzBDMSIgZD0iTTAgMGg0MC43NTUydjEwMjRIMHoiLz48cGF0aCBmaWxsPSIjQkNDMEMxIiBkPSJNMS42OTk4NCA5NjkuNjU2MzJIMTAyNFYxMDI0SDEuNjk5ODR6Ii8+PHBhdGggZmlsbD0iIzY5RDQ4MCIgZD0iTTE1Ni4yMzE2OCAzNjEuNzEyNjRoMTI1LjY2NTI4djU0My40MTYzMkgxNTYuMjMxNjh6Ii8+PHBhdGggZmlsbD0iI0ZGQzQ2RSIgZD0iTTQ1NS4xMTE2OCA1NDEuNzE2NDhoMTI1LjY2NTI4djM2My40MDczNkg0NTUuMTExNjh6Ii8+PHBhdGggZmlsbD0iIzFFN0VGMSIgZD0iTTc1My45OTE2OCAxNDQuMzQzMDRoMTI1LjY2NTI4djc2MC43ODA4aC0xMjUuNjY1Mjh6Ii8+PC9zdmc+;" parent="1" vertex="1">
          <mxGeometry x="61" y="26" width="140" height="140" as="geometry" />
        </mxCell>
        <mxCell id="adjJdDfT9aPbvH8SN8qC-4" value="采样" style="text;html=1;align=center;verticalAlign=middle;resizable=0;points=[];autosize=1;strokeColor=none;fillColor=none;" parent="1" vertex="1">
          <mxGeometry x="218" y="69" width="42" height="26" as="geometry" />
        </mxCell>
        <mxCell id="adjJdDfT9aPbvH8SN8qC-5" value="设备1：序列数、序列类型、序列频率、对齐/非对齐" style="rounded=0;whiteSpace=wrap;html=1;fillColor=#FFFFFF;strokeColor=#000000;" parent="1" vertex="1">
          <mxGeometry x="294" y="49" width="317" height="26" as="geometry" />
        </mxCell>
        <mxCell id="adjJdDfT9aPbvH8SN8qC-10" style="edgeStyle=orthogonalEdgeStyle;rounded=0;orthogonalLoop=1;jettySize=auto;html=1;fontSize=15;" parent="1" source="adjJdDfT9aPbvH8SN8qC-6" edge="1">
          <mxGeometry relative="1" as="geometry">
            <mxPoint x="683" y="96" as="targetPoint" />
          </mxGeometry>
        </mxCell>
        <mxCell id="adjJdDfT9aPbvH8SN8qC-6" value="设备2：序列数、序列类型、序列频率、对齐/非对齐" style="rounded=0;whiteSpace=wrap;html=1;fillColor=#FFFFFF;strokeColor=#000000;" parent="1" vertex="1">
          <mxGeometry x="294" y="83" width="317" height="26" as="geometry" />
        </mxCell>
        <mxCell id="adjJdDfT9aPbvH8SN8qC-7" value="设备3：序列数、序列类型、序列频率、对齐/非对齐" style="rounded=0;whiteSpace=wrap;html=1;fillColor=#FFFFFF;strokeColor=#000000;" parent="1" vertex="1">
          <mxGeometry x="294" y="117" width="317" height="26" as="geometry" />
        </mxCell>
        <mxCell id="adjJdDfT9aPbvH8SN8qC-8" value="&lt;font style=&quot;font-size: 15px;&quot;&gt;...&lt;/font&gt;" style="text;html=1;align=center;verticalAlign=middle;resizable=0;points=[];autosize=1;strokeColor=none;fillColor=none;" parent="1" vertex="1">
          <mxGeometry x="432" y="143" width="31" height="30" as="geometry" />
        </mxCell>
        <mxCell id="adjJdDfT9aPbvH8SN8qC-12" value="&lt;b&gt;采样生成元数据&lt;/b&gt;" style="text;html=1;align=center;verticalAlign=middle;resizable=0;points=[];autosize=1;strokeColor=none;fillColor=none;fontSize=15;" parent="1" vertex="1">
          <mxGeometry x="330" y="196" width="123" height="30" as="geometry" />
        </mxCell>
        <mxCell id="adjJdDfT9aPbvH8SN8qC-29" style="edgeStyle=orthogonalEdgeStyle;rounded=0;orthogonalLoop=1;jettySize=auto;html=1;entryX=0.5;entryY=1;entryDx=0;entryDy=0;entryPerimeter=0;fontSize=15;" parent="1" source="adjJdDfT9aPbvH8SN8qC-15" target="adjJdDfT9aPbvH8SN8qC-24" edge="1">
          <mxGeometry relative="1" as="geometry" />
        </mxCell>
        <mxCell id="adjJdDfT9aPbvH8SN8qC-15" value="数据生成线程：频率 1Hz" style="rounded=1;whiteSpace=wrap;html=1;fontSize=15;fillColor=#FFFFFF;strokeColor=#000000;" parent="1" vertex="1">
          <mxGeometry x="119" y="348" width="210" height="34" as="geometry" />
        </mxCell>
        <mxCell id="adjJdDfT9aPbvH8SN8qC-27" style="edgeStyle=orthogonalEdgeStyle;rounded=0;orthogonalLoop=1;jettySize=auto;html=1;entryX=0.5;entryY=1;entryDx=0;entryDy=0;entryPerimeter=0;fontSize=15;" parent="1" source="adjJdDfT9aPbvH8SN8qC-16" target="adjJdDfT9aPbvH8SN8qC-24" edge="1">
          <mxGeometry relative="1" as="geometry" />
        </mxCell>
        <mxCell id="adjJdDfT9aPbvH8SN8qC-16" value="数据生成线程：频率 100Hz" style="rounded=1;whiteSpace=wrap;html=1;fontSize=15;fillColor=#FFFFFF;strokeColor=#000000;" parent="1" vertex="1">
          <mxGeometry x="119" y="272" width="210" height="34" as="geometry" />
        </mxCell>
        <mxCell id="adjJdDfT9aPbvH8SN8qC-28" style="edgeStyle=orthogonalEdgeStyle;rounded=0;orthogonalLoop=1;jettySize=auto;html=1;entryX=0.5;entryY=1;entryDx=0;entryDy=0;entryPerimeter=0;fontSize=15;" parent="1" source="adjJdDfT9aPbvH8SN8qC-17" target="adjJdDfT9aPbvH8SN8qC-24" edge="1">
          <mxGeometry relative="1" as="geometry" />
        </mxCell>
        <mxCell id="adjJdDfT9aPbvH8SN8qC-17" value="数据生成线程：频率 10Hz" style="rounded=1;whiteSpace=wrap;html=1;fontSize=15;fillColor=#FFFFFF;strokeColor=#000000;" parent="1" vertex="1">
          <mxGeometry x="119" y="310" width="210" height="34" as="geometry" />
        </mxCell>
        <mxCell id="adjJdDfT9aPbvH8SN8qC-30" style="edgeStyle=orthogonalEdgeStyle;rounded=0;orthogonalLoop=1;jettySize=auto;html=1;entryX=0.5;entryY=1;entryDx=0;entryDy=0;entryPerimeter=0;fontSize=15;" parent="1" source="adjJdDfT9aPbvH8SN8qC-18" target="adjJdDfT9aPbvH8SN8qC-24" edge="1">
          <mxGeometry relative="1" as="geometry" />
        </mxCell>
        <mxCell id="adjJdDfT9aPbvH8SN8qC-18" value="数据生成线程：频率 0.1Hz" style="rounded=1;whiteSpace=wrap;html=1;fontSize=15;fillColor=#FFFFFF;strokeColor=#000000;" parent="1" vertex="1">
          <mxGeometry x="119" y="386" width="210" height="34" as="geometry" />
        </mxCell>
        <mxCell id="adjJdDfT9aPbvH8SN8qC-26" value="" style="group;fillColor=#FFFFFF;strokeColor=none;" parent="1" vertex="1" connectable="0">
          <mxGeometry x="368.995" y="331.005" width="152.75" height="33" as="geometry" />
        </mxCell>
        <mxCell id="adjJdDfT9aPbvH8SN8qC-24" value="" style="shape=cylinder3;whiteSpace=wrap;html=1;boundedLbl=1;backgroundOutline=1;size=15;fontSize=15;fillColor=#E6E6E6;rotation=90;strokeColor=#000000;" parent="adjJdDfT9aPbvH8SN8qC-26" vertex="1">
          <mxGeometry x="59.875" y="-59.875" width="33" height="152.75" as="geometry" />
        </mxCell>
        <mxCell id="adjJdDfT9aPbvH8SN8qC-25" value="数据消费队列" style="text;html=1;align=center;verticalAlign=middle;resizable=0;points=[];autosize=1;strokeColor=none;fillColor=none;fontSize=15;" parent="adjJdDfT9aPbvH8SN8qC-26" vertex="1">
          <mxGeometry x="12.995000000000005" y="1.5049999999999955" width="108" height="30" as="geometry" />
        </mxCell>
        <mxCell id="adjJdDfT9aPbvH8SN8qC-23" value="根据频率划分" style="text;html=1;align=center;verticalAlign=middle;resizable=0;points=[];autosize=1;strokeColor=none;fillColor=none;fontSize=15;" parent="1" vertex="1">
          <mxGeometry x="45" y="420" width="108" height="30" as="geometry" />
        </mxCell>
        <mxCell id="adjJdDfT9aPbvH8SN8qC-32" value="写入线程" style="rounded=1;whiteSpace=wrap;html=1;fontSize=15;fillColor=#bac8d3;strokeColor=#23445d;" parent="1" vertex="1">
          <mxGeometry x="549" y="272" width="93" height="34" as="geometry" />
        </mxCell>
        <mxCell id="adjJdDfT9aPbvH8SN8qC-33" value="写入线程" style="rounded=1;whiteSpace=wrap;html=1;fontSize=15;fillColor=#bac8d3;strokeColor=#23445d;" parent="1" vertex="1">
          <mxGeometry x="549" y="330" width="93" height="34" as="geometry" />
        </mxCell>
        <mxCell id="adjJdDfT9aPbvH8SN8qC-54" style="edgeStyle=orthogonalEdgeStyle;rounded=0;orthogonalLoop=1;jettySize=auto;html=1;entryX=0;entryY=0.5;entryDx=0;entryDy=0;entryPerimeter=0;fontSize=15;" parent="1" source="adjJdDfT9aPbvH8SN8qC-34" target="adjJdDfT9aPbvH8SN8qC-51" edge="1">
          <mxGeometry relative="1" as="geometry" />
        </mxCell>
        <mxCell id="adjJdDfT9aPbvH8SN8qC-34" value="写入线程" style="rounded=1;whiteSpace=wrap;html=1;fontSize=15;fillColor=#FFFFFF;strokeColor=#000000;" parent="1" vertex="1">
          <mxGeometry x="549" y="386" width="93" height="34" as="geometry" />
        </mxCell>
        <mxCell id="adjJdDfT9aPbvH8SN8qC-35" style="edgeStyle=orthogonalEdgeStyle;rounded=0;orthogonalLoop=1;jettySize=auto;html=1;entryX=0;entryY=0.5;entryDx=0;entryDy=0;fontSize=15;" parent="1" source="adjJdDfT9aPbvH8SN8qC-24" target="adjJdDfT9aPbvH8SN8qC-32" edge="1">
          <mxGeometry relative="1" as="geometry">
            <Array as="points">
              <mxPoint x="524" y="348" />
              <mxPoint x="524" y="289" />
            </Array>
          </mxGeometry>
        </mxCell>
        <mxCell id="adjJdDfT9aPbvH8SN8qC-37" style="edgeStyle=orthogonalEdgeStyle;rounded=0;orthogonalLoop=1;jettySize=auto;html=1;fontSize=15;" parent="1" source="adjJdDfT9aPbvH8SN8qC-24" target="adjJdDfT9aPbvH8SN8qC-33" edge="1">
          <mxGeometry relative="1" as="geometry" />
        </mxCell>
        <mxCell id="adjJdDfT9aPbvH8SN8qC-38" style="edgeStyle=orthogonalEdgeStyle;rounded=0;orthogonalLoop=1;jettySize=auto;html=1;entryX=0;entryY=0.5;entryDx=0;entryDy=0;fontSize=15;" parent="1" source="adjJdDfT9aPbvH8SN8qC-24" target="adjJdDfT9aPbvH8SN8qC-34" edge="1">
          <mxGeometry relative="1" as="geometry">
            <Array as="points">
              <mxPoint x="524" y="348" />
              <mxPoint x="524" y="403" />
            </Array>
          </mxGeometry>
        </mxCell>
        <mxCell id="adjJdDfT9aPbvH8SN8qC-52" style="edgeStyle=orthogonalEdgeStyle;rounded=0;orthogonalLoop=1;jettySize=auto;html=1;entryX=0;entryY=0.5;entryDx=0;entryDy=0;entryPerimeter=0;fontSize=15;" parent="1" source="adjJdDfT9aPbvH8SN8qC-39" target="adjJdDfT9aPbvH8SN8qC-51" edge="1">
          <mxGeometry relative="1" as="geometry" />
        </mxCell>
        <mxCell id="adjJdDfT9aPbvH8SN8qC-39" value="写入线程" style="rounded=1;whiteSpace=wrap;html=1;fontSize=15;fillColor=#FFFFFF;strokeColor=#000000;" parent="1" vertex="1">
          <mxGeometry x="549" y="272" width="93" height="34" as="geometry" />
        </mxCell>
        <mxCell id="adjJdDfT9aPbvH8SN8qC-53" style="edgeStyle=orthogonalEdgeStyle;rounded=0;orthogonalLoop=1;jettySize=auto;html=1;fontSize=15;" parent="1" source="adjJdDfT9aPbvH8SN8qC-40" target="adjJdDfT9aPbvH8SN8qC-51" edge="1">
          <mxGeometry relative="1" as="geometry" />
        </mxCell>
        <mxCell id="adjJdDfT9aPbvH8SN8qC-40" value="写入线程" style="rounded=1;whiteSpace=wrap;html=1;fontSize=15;fillColor=#FFFFFF;strokeColor=#000000;" parent="1" vertex="1">
          <mxGeometry x="549" y="330" width="93" height="34" as="geometry" />
        </mxCell>
        <mxCell id="adjJdDfT9aPbvH8SN8qC-43" value="" style="group" parent="1" vertex="1" connectable="0">
          <mxGeometry x="682" y="54.5" width="63" height="83" as="geometry" />
        </mxCell>
        <mxCell id="adjJdDfT9aPbvH8SN8qC-41" value="" style="shape=process;whiteSpace=wrap;html=1;backgroundOutline=1;fontSize=15;fillColor=none;rotation=90;" parent="adjJdDfT9aPbvH8SN8qC-43" vertex="1">
          <mxGeometry x="-10" y="11.5" width="83" height="60" as="geometry" />
        </mxCell>
        <mxCell id="adjJdDfT9aPbvH8SN8qC-42" value="元数据" style="text;html=1;align=center;verticalAlign=middle;resizable=0;points=[];autosize=1;strokeColor=none;fillColor=none;fontSize=15;" parent="adjJdDfT9aPbvH8SN8qC-43" vertex="1">
          <mxGeometry y="26.5" width="63" height="30" as="geometry" />
        </mxCell>
        <mxCell id="adjJdDfT9aPbvH8SN8qC-44" value="" style="group" parent="1" vertex="1" connectable="0">
          <mxGeometry x="10" y="305" width="63" height="83" as="geometry" />
        </mxCell>
        <mxCell id="adjJdDfT9aPbvH8SN8qC-45" value="" style="shape=process;whiteSpace=wrap;html=1;backgroundOutline=1;fontSize=15;fillColor=none;rotation=90;" parent="adjJdDfT9aPbvH8SN8qC-44" vertex="1">
          <mxGeometry x="-10" y="11.5" width="83" height="60" as="geometry" />
        </mxCell>
        <mxCell id="adjJdDfT9aPbvH8SN8qC-46" value="元数据" style="text;html=1;align=center;verticalAlign=middle;resizable=0;points=[];autosize=1;strokeColor=none;fillColor=none;fontSize=15;" parent="adjJdDfT9aPbvH8SN8qC-44" vertex="1">
          <mxGeometry y="26.5" width="63" height="30" as="geometry" />
        </mxCell>
        <mxCell id="adjJdDfT9aPbvH8SN8qC-47" style="edgeStyle=orthogonalEdgeStyle;rounded=0;orthogonalLoop=1;jettySize=auto;html=1;entryX=0;entryY=0.5;entryDx=0;entryDy=0;fontSize=15;" parent="1" source="adjJdDfT9aPbvH8SN8qC-46" target="adjJdDfT9aPbvH8SN8qC-16" edge="1">
          <mxGeometry relative="1" as="geometry" />
        </mxCell>
        <mxCell id="adjJdDfT9aPbvH8SN8qC-48" style="edgeStyle=orthogonalEdgeStyle;rounded=0;orthogonalLoop=1;jettySize=auto;html=1;entryX=0;entryY=0.5;entryDx=0;entryDy=0;fontSize=15;" parent="1" source="adjJdDfT9aPbvH8SN8qC-46" target="adjJdDfT9aPbvH8SN8qC-17" edge="1">
          <mxGeometry relative="1" as="geometry" />
        </mxCell>
        <mxCell id="adjJdDfT9aPbvH8SN8qC-49" style="edgeStyle=orthogonalEdgeStyle;rounded=0;orthogonalLoop=1;jettySize=auto;html=1;entryX=0;entryY=0.5;entryDx=0;entryDy=0;fontSize=15;" parent="1" source="adjJdDfT9aPbvH8SN8qC-46" target="adjJdDfT9aPbvH8SN8qC-15" edge="1">
          <mxGeometry relative="1" as="geometry" />
        </mxCell>
        <mxCell id="adjJdDfT9aPbvH8SN8qC-50" style="edgeStyle=orthogonalEdgeStyle;rounded=0;orthogonalLoop=1;jettySize=auto;html=1;entryX=0;entryY=0.5;entryDx=0;entryDy=0;fontSize=15;" parent="1" source="adjJdDfT9aPbvH8SN8qC-46" target="adjJdDfT9aPbvH8SN8qC-18" edge="1">
          <mxGeometry relative="1" as="geometry" />
        </mxCell>
        <mxCell id="adjJdDfT9aPbvH8SN8qC-51" value="IoTDB" style="shape=cylinder3;whiteSpace=wrap;html=1;boundedLbl=1;backgroundOutline=1;size=15;fontSize=15;fillColor=#FFFFFF;strokeColor=#000000;" parent="1" vertex="1">
          <mxGeometry x="691" y="318" width="92" height="58" as="geometry" />
        </mxCell>
        <mxCell id="adjJdDfT9aPbvH8SN8qC-55" value="消费" style="text;html=1;align=center;verticalAlign=middle;resizable=0;points=[];autosize=1;strokeColor=none;fillColor=none;fontSize=15;" parent="1" vertex="1">
          <mxGeometry x="498" y="420" width="48" height="30" as="geometry" />
        </mxCell>
        <mxCell id="adjJdDfT9aPbvH8SN8qC-56" value="InsertRecords" style="text;html=1;align=center;verticalAlign=middle;resizable=0;points=[];autosize=1;strokeColor=none;fillColor=none;fontSize=15;" parent="1" vertex="1">
          <mxGeometry x="633" y="420" width="111" height="30" as="geometry" />
        </mxCell>
        <mxCell id="adjJdDfT9aPbvH8SN8qC-57" value="&lt;b&gt;产生数据并写入&lt;/b&gt;" style="text;html=1;align=center;verticalAlign=middle;resizable=0;points=[];autosize=1;strokeColor=none;fillColor=none;fontSize=15;" parent="1" vertex="1">
          <mxGeometry x="340" y="478" width="123" height="30" as="geometry" />
        </mxCell>
      </root>
    </mxGraphModel>
  </diagram>
</mxfile>
